/* XPM */
static char *_3daa84292f0466ca21f2b3fb620b3e9fibIQor6ztZR1si3[] = {
/* columns rows colors chars-per-pixel */
"100 100 87 1 ",
"  c #0D0706",
". c #0C0807",
"X c #0D0709",
"o c #060C08",
"O c #0C0909",
"+ c #130607",
"@ c #1C0506",
"# c #130907",
"$ c #1C0905",
"% c #120708",
"& c #190608",
"* c #120A0A",
"= c #1C0C0A",
"- c #1F110B",
"; c #1B0D10",
": c #240404",
"> c #2B0304",
", c #240B05",
"< c #2B0D05",
"1 c #220E0A",
"2 c #2A0F0A",
"3 c #340202",
"4 c #3B0102",
"5 c #340F06",
"6 c #25110A",
"7 c #2C120B",
"8 c #351206",
"9 c #3B1306",
"0 c #33150C",
"q c #3B160B",
"w c #36180C",
"e c #3A180D",
"r c #2F1610",
"t c #301610",
"y c #3C1A11",
"u c #430101",
"i c #4C0000",
"p c #451506",
"a c #491707",
"s c #421906",
"d c #4E1907",
"f c #421609",
"g c #4A1509",
"h c #431A0D",
"j c #4B1C0D",
"k c #541D0D",
"l c #5A1F0B",
"z c #431D13",
"x c #4C1D10",
"c c #521D11",
"v c #641F0C",
"b c #4D200F",
"n c #53200D",
"m c #5B210E",
"M c #442015",
"N c #4B2215",
"B c #532111",
"V c #5B2412",
"C c #63240E",
"Z c #6C250D",
"A c #6D280E",
"S c #72270E",
"D c #78270E",
"F c #752A0F",
"G c #7B2B0F",
"H c #652612",
"J c #6A2710",
"K c #6D2912",
"L c #602718",
"P c #642919",
"I c #6D2A18",
"U c #712711",
"Y c #742A11",
"T c #7C2D11",
"R c #722E1B",
"E c #7C3014",
"W c #75301C",
"Q c #7C311A",
"! c #862E0F",
"~ c #892F0D",
"^ c #87300F",
"/ c #88300F",
"( c #852E12",
") c #882E11",
"_ c #863012",
"` c #883011",
"' c #813018",
/* pixels */
"iiiiiiiu:&OOO*,Z((!)(L;OOOO#p!)(~)HwOOOOO>uiiiiiiiiiiiiii4:+OOOOzI_`__/f$O.oO=VT((_TH7&ooX+>uiiiiiii",
"iiiiiii4:&OOO*,Z(((~'P*OOO.$p!)(()HyOOOO%>uiiiiiiiiiiiiii4:%OOXOhR`__`/a$ OO;=VQ___TH6&oOO+>uiiiiiii",
"iiiiiii4:&OO.#<Z((__'P*OOo.$p(()~)HeOOOOO>uiiiiiiiiiiiiii4:%OOOOzR`_`_`f&XOoX1VQ___TH7*oOO+>iiiiiiii",
"iiiiiiiu:&OOO+,Z(~_~(P*XO..$p~)(!)HqOOOO%>4iiiiiiiiiiiiii4:+OOOXzR___``a&XOO*1BT___TV7&OOX+>uiiiiiii",
"iiiiiii4:%OOO#,Z(!()QP*OOO.$p!))_)HeOOOO%,4iiiiiiiiiiiiiu4@O..oXzR/`_``p$OOOX;VT___TC7*oOO+:uiiiiiii",
"iiiiiu3:&%OOO+,Z(((!QP;OOO.$p!()/)HeOOOOO%>3uiiiiiiiiiuu3:%O..XXzR__``/p&OOoX1VT___TC7&OOOO&:3uiiiii",
"iiiu4>@%oo.OO#<Z!(``'P*OOO.$p!!!_)HeOOOOOO%@34uiiiiiiu43@%OOXXoXzR____/p$O.O*1VT___TC7*OOOOO.:>4uiii",
"iiu3@%OOOOOOO#:Z__`^_P*OOO.$p!!)/)HeOOOOOXXo%@>uiiiiu3:OOXXOXoXXzR____/p$O.OX;VQ___TH7*OOOOO%o%@3uii",
"43:++OOOOOoO%1fD()))'P;OOO.@p))(_(Yj-OOO.OOOO*$:344>:$%OXOOOOO%1BT_____p&OOO;1VE_`((Yh1+XOOOOXO%&:34",
":@+OOOO.OO.$0kC!(_`)'P*OOO.@p((__)(Hj7=.oO.OOOO#&,>&%OOOOOOoO=0kH(____/h@OOOO1VY`(((GHx7*%OOOOOOO%@:",
"OO..OO .+&-8CT!!((()'P;OOOO&p!_____(FHq#%OOOOOOO.+%OOOOOOOO%=qHG((`__`_s$OOOO=VE_)(()(Tl0=%XoOOOOOOO",
"OOXOOOoO#qHT(_(_(~()(V*oOO @p(_(____^^GHw;XOOOOOOoOXOOOOO%=8HT()))__`__g=XOOO1VT)_)))))(TVt=%OOOOOXo",
"OOO.o%10jHT)__(((_(TPM*OOOO#0AT(__``!`_THjw6oOOOOXXOOOX%10kHT_))((`__EK8+OOO*=yHT)_')))((THj7=*ooOXX",
"OOXO=7hCY(____(~(TJmh6*OOOO%-hnKT_()))!_(Smh6=%OOOOOO*=7hHY))(()(((TZBy=OOOOX%6hlU(())))(((Ymh7=OOXO",
"OOO&hHY____`__`!THf7*OOOOO.OO*1zHT(_(_`/(!(Tmq6%OOOOO1fmT(___)))(!GCe6%OOOOOOOo&19JT()))(___(YVq=XOO",
"O =xIT())__`_)(Ch6&*OOOOOo.OOO%=69HE`))))!/GTZh=XOOX=aZT((___)((_H96=#OOOOOOOXX%*&rhH())(____((C0&OO",
"oO2VT())(`__TKk0=*.oOOoXOOOOOOXX%$0BJ!_`)))__Fk-XOOO$k!/((___(THjw&%OoOOOOOOOOOOOO&1qkJT_`)()))Ff$Oo",
"O.1VT(((_(TYmh6OO..oOXo%++#OOOOOOO%2hCYT())(_Tx6*OOO,kG~/___TYHh1OOOOOOOOX%%%oOoOooO%6jHYT(())(Tp$ O",
"O.1VT_)_)DHx6%OOOOOoXO%&::&%OOOOOOOO%6zJ((`()Tn6*OO*,k!~()!(Ch1OOXO.OOOO%@::&OOOOOOooOO7BZ((__`Yp=oO",
"O.1VT___~C01&OOOOOOO%@:3443>&%OOOOOoo*6hY(`_(Yb6OOOO,kG~))_Eh=#.OXOOOOO@>3443>&OOOOOoOO*6hJ___`Dg=O ",
"OO6VT____l,%..OOOX*&:34uiiu43:+%OOOOOO*0H(((_TB6*OOO,nG/)(_R0OoOOOOO#&>34uiiu43:+OOOOOOo%0Z____Yp=OO",
"OO6VT___)l,%..OOO%@>4iiiiiiiuu>1%OOOOOO0H()()Yk6OOOO,l!~`__R0OOOoO++@>uiiiiiiiu4>++OOOOO*wH____Tp@OO",
"O 6V(___(l@XoO.O%>4iiiiiiiiiiiii:%OoOO*0AT~))Tn6*OO*,kT/`__WtOOOO%%:4uiiiiiiiiiii4:+OOOO%0P__``Yp=O ",
"o 6VT_`_)l@XXoXX:4iiiiiiiiiiiiii4@%OOO*7H!()(Yn1OOOO,k(!)((RtOOOo+@4iiiiiiiiiiiiiu4:OOOO*wH__``Gp=OO",
"O 1VT__`_l1OOOOX>uiiiiiiiiiiiiiiu:%OOO%0H_^!(Yn6OOO%,k!/`)_WrOOOO%:4iiiiiiiiiiiiiiu>XOOO*wH___`Yp=OO",
"OO2VT___`l@%OOOX>uiiiiiiiiiiiiiiu:OOOO*7AG/(_Tn6*OOO,kG~)_'RroOOo+:uiiiiiiiiiiiiiiu>OOOO*tH____Dp=OO",
"O.6VT___)l1XXOOO>uiiiiiiiiiiiiiiu:%OOO*rJ_/)(Yn6OO.O,k!/)__Rr%OOO+:4iiiiiiiiiiiiiiu>OOOO*0H____Fp=XO",
"O 6VT___(l@XOOOO>uiiiiiiiiiiiiiiu:%OOOO0JG/))Tn6*O..,kG~`)_RrOOOO%:uiiiiiiiiiiiiiiu>OOOOOyH____Tp@O ",
"O 6mT___(l1OOOOO>uiiiiiiiiiiiiiiu:#.OO*wHE/(_Tn6.OOO,kG~`_'RrOOOO%:uiiiiiiiiiiiiiiu>OO*OOwH_`__Gg&OO",
"O.6VT___!l@OOOOO>uiiiiiiiiiiiiii4:#.OOO0AG//_Fn6*OOO,k(~`_'RrOOOO%:4iiiiiiiiiiiiiiu>OOOOOyH____Fg=O ",
"O.6VT__`~l$%OOOO>uiiiiiiiiiiiiiiu:*.OO*rJ__)(Tn6*OO*,k!~`__Rr*OOO%1uiiiiiiiiiiiiiii>OOoO*wH_`__Ff=OO",
"O 6VT_`_(l=%OOO.>uiiiiiiiiiiiiiiu:*OOoO0C(/)_Yn6OOO.,kG~`(_WrOOOX%:iiiiiiiiiiiiiiiu<OOOO*tH_`__Gp&oO",
"OO6VT___(l&XXoXX:4uiiiiiiiiiiiii4@+OOO%0JE/()Tn6OOOO,k!/~~_IrOOOOX@4uiiiiiiiiiiiiu4:OOOO*0H____Fp=O ",
"OO6VT___(l1*XXXo%@4iiiiiiiiiiiu3:+OOOO*7JG//)Yn6OOO%,kG/`!_RrOOOOOO>4uiiiiiiiiiiu4@%OOOO*0H____Fp=OO",
"O 6VT___(l&*OXOOO#@>3uuiiiiuu3>@+.oOOO*rH_/)(Yn6%OOO$k!~)__WtOOOOOO%@>4uuiiiiuu4>&%%OOOO*wH____Tp=OO",
"o 7VT___(v>XXoOOOOO+:>4uiiu4>:+%..OOoo#wJ(/))Tn6%Oo*,k!/`)_WtOOOOOOOO&:>4uiuu3>@%XOoOOOO%0H____Ta@oO",
"O 1VT___(C91%OoOOOOOX%:3443@&OOoOOOX%*=hY!!)(FB6OOO*,nG/`)_Qh=%.XXOXOOO%:3443:*XOOOOOoO&6hS^__`Fp=OO",
"OO2VT___)(UV7+OOOOOXXXO%&@+#OoOOOXXO%0VY((/)(Tb1*OOO,n!/))))Yk0*XoOOOXXX%%@&%OOOOOOOoO+0VS!___`Fp=OO",
"OO6VT___)((RHf2=OOOOOOOOO%..OOOOOO=6hHT(())()Tk6OOOO,kG/))()(SHh7=OOOXOOOX%XOOOOOOO%#7hCT(``___Fp=OO",
"O.1BT_)__(()(Skt1;OOOOoOOo..OOO%=6qnY((()(__(Yx1OOO*=kD/))_(__^Ace6*%XOOOXoXOOOOO.=6qmY(~))`___S9&OX",
"O%=hHT(((())()(Uct&%XXXOOOOOOo#=0dY'____)__(THf;OOOO&fCQ(_/__!/((Ua01%oOOOOOOoOo*$wnA__(``(`_(TH0&OO",
"OO%=ycC((())))((THxt;XOOOOOO*&0bJF^__`_`))(Kj0=%OOOOO@qxJT//_())((YHc0&%OOO. ..-qdKE!__/(`))_Zj7&%OO",
"OOOO=7qlY()))))))(Ulj7OOOOO*7jmST______((Zky2=%OOOOOO%=2fnF/)()))__TYmx6$OOoO#7dCS(__(_((((Hnq6;OOOO",
"OOOOOX=1jHT(()))))((YV21**60kT__`(/__(TTHh2*OOoOOOXXXoOX&7bCD(~(`_~((TTn8=*#=qmFT_//)))((THh6*OOOoOO",
"oOOoOOOO#7nD(()))(___'Gn0<VY(~(())))(TYB1%XOOOOO*O..XOOOXXO,mT(_))`)(__!Fn68k'_/__`_)(((FB7OoXOOXO O",
"-*.OOOOO.*68kYT))/_____TYHT!!~~)))(TUBw1*OXoOOOOO--#oOOOOOo&6ekKT()`/`_(_YAZG____`__(TKn81%OOXOOOo&=",
"h06%OOOOOOO#7zVS!!____/___(~(!!))(Ulh7=OOOoOO.O18Nx7=%OoOOOOX&7jmS(//_/_((___/_`___TSmh7#.OOoXOOO60f",
"Fmz6*OOOOOOOO&7jCT____/()~())!_(TJx2&OOXOOOOO&6hmYYmy6;OOOOOOOO=<hIT!()))_!(`!)___TCj1&OoOOOXXO=1xHY",
"/GTH0$.oOOOOO%O&2jQ(``()))))(/_Ad6-OOOOOo..%%qHT(__TFVe%OOOOOOOO%&7jS_((()))(((_(Qa6=%OO.oOOOO=qHT((",
"_((TCne$%Oo.OoOO*10cK!(())((TYkq6*oOOOOOO&=8VKD(____(GJBw=%oOOXoo%*6emT()())(((Znw-%OOOO.O..%qlST(__",
"`)`(_THq61%OOOOOOO%7hCY(((TSVj2*OOOOOOo%=0hm'_)`____`))Tmf7=%OXXOO%O=2kCY((((Yvz6.OXOOOOO&=7gHT()(__",
"_(`)/((Tme1*OOOOOXOo=7kHGTCky%%OOOOOO%%1fVY(~))(`_____())Ylh,%XOOOOOoO 0cHTTZj2%OOOOOOo**6hm'()(____",
"/`_!/(((TZmy-.OOXOOOO%-0fj71*OOOOOOO*=eVYT(_~)((_!!_)))!_(TYnq6OOOOOOO.*=0hhw=;OoOOOoO%1hmZT(()))___",
"AT_(//)_`!DKn0=%OOOOoo.;=1*XOOXoOOO=qkAT('__(())'ZZE(!))((((YJk0=OOoOOOOO=6-=oOOO OO%=qcKT(`))))/_GA",
"hmY(!!))``)(TCh1&%O*OOOOXoOOOOOO*&6zHT(``_`_((TYLsfCF!()((`(((Tmh6&OOOOOO.OOoOOXoOO&1jHT(//(~()(TSmb",
"%=sKT(~(/`()(__mw=OOOOOOOOOOOOO*=<CE_))__`)()!Hh$.O=jHT!_`____()EL<=%oOOOOOOOOOoOO=yH((_//~)))(TY0#o",
"O.=7NHT_`)((~`_TJB01%OOOOXOoO%1qBA'()()))(_TCjt&OOO&=0jZG(____/^_TZnw=OOOXXOOXo&,5VUT())_))((DVx7=.O",
"OOO&6qjHT((!)((((TCdw-OOXXXO=wxHT)))()))(YHB06*XOOOOO*1qkHT_//__()_YCj0&OOOOO%=qcvT())))_((TZjy6*OOO",
"OOOO#%6eVY(((_(`()(FVy*OOOO%7HY(()__((((Yky6#OOOOOOOOOO+1hCFT(_())()(YH7+OOoO;eVT()))'_)_TYVq6*XOOOO",
"OOOO.O%*$hI(/_`_)()!EL*OOOO$f(()()__(!(Hq1*%oooOOOOOOoOO#*,8I()!~`))((!p%OoOO;VT(())))__(Cq=%OooOOOO",
".oOOOOoX%=7aHT(__(_)QP*OOOO=p!((_)_(THj7&%XOXOOoOO%OOOoX..*=0jZT((()!__p@OXO*;VT))(()''Zf0=XOOOOOOOO",
"$$%OOOOOoO%$fVJ(((_~EP;OOOo$p~())_TYly= XOXOOOO%$@&$+OOXo..*#1hmY(_`/`_p=XOO*;VT))(('Ulq=*OO OOOO%&$",
"3>@&XXOOXOOO&2dD!(_/_P*OOOO&p!(`)_Tx1...XOOOOO#@>43>@%OOOOOOOO%6VT__``(g%OOO*=VQ)_((Ux2%OOOOOOOO%@>4",
"iu3>&XOOOOOOo#<Z___/'P*OO..$p(_`)_He#+OOOOOO+@>3uuiu3>@OXOOOOO.*zR_`__(g@OOO*=VT__((Ht%OO%OOOo%@>4ui",
"iiuu3:&OOOOOO%,Z!(!~'P*OOO.$s!!!!`HqOoOXOXX=>3uuiiiii43>&%OOOOOXzI____`a$OOOX=VY___TC7*OXoOOO@>4iiii",
"iiiii43@%oOOo%>Z!(`('P;OOO.$p!`!/(HyXOOOO*:>uiiiiiiiiii4>@+oOOOXzR____)g@OOO;1VQ__((H7*XXXO%@34iiiii",
"iiiiiiu4,%OOO%<Z()_)'P*OO.O$p!()/)HeXOOOO:4iiiiiiiiiiiiii3@XOOOXzR__`_`p&OoOO1VT___TC7*OOo%:uuiiiiii",
"iiiiiiiu:&OOO%,Z()_/'P*OOoO$p~)(_)HwXOOOX>4iiiiiiiiiiiiii4:%OOOOzI____`p&XOOX;VT___TC7*ooO&>uiiiiiii",
"iiiiiiiu:%OO.+<v(!)~(L;Oo..@p!()_)HeOOOOX>uiiiiiiiiiiiiii4:%O.OOzR__`_`p@OoO*=VT___TH7*.oO+>uiiiiiii",
"iiiiiiiu>&OOO+<Z((()'P*Oo..@p!()/)HeOOOOX>4iiiiiiiiiiiiii4:%OOXXzR____`p@OOO;=VQ__`TH7*OOO&>iiiiiiii",
"iiiiiiiu:%OOO+<Z!)(!'P*OOO.@p~))/)HeOOOO%>uiiiiiiiiiiiiii4:XO.XOzR_``_`p&OoOO=VT___Tm7&OOX%>uiiiiiii",
"iiiiiiuu>%OOO ,Z!)(((P*OOO.@p()(/`HeOOOOX>uiiiiiiiiiiiiii4:X..OOhR`___/a&XXo;=VT___TH6*ooO%>iiiiiiii",
"iiiiiii4>%%XO+,Z(__/'P*OOO.$p!!~/(HeoOOO#>uiiiiiiiiiiiiii4:%OOOXzW__`_`p$O.OO=VY___TC7*OXX+>uiiiiiii",
"iiiiiiiu,%OXO#<Z(/__'P*OOO.@p!((/)HeOO%OO>4iiiiiiiiiiiiii4:%OOOOzI___`)p$.oO;1VQ___TC7*OoO+>iiiiiiii",
"iiiiiiiu:%OOO+:Z!(``'P;OOO.$p~))/)HyOOOO+>uiiiiiiiiiiiiii4: OOOOhR____/a&OoX%=VQ__`EC7*OXX%>iiiiiiii",
"iiiiiii41&Xo.#,Z((`^_P*OOO.$p()(()HwOOOOO:4iiiiiiiiiiiiii4: OOO%MR_`___p@OOO*=VT__`YH7*ooX%:uiiiiiii",
"iiiiiu4>&%OOO+<Z()(~'P**o..@p!()/(HeXXXXO@>4uiiiiiiiiiiu4:+OOOOOzI____/p=OOOX;VY___TC2%OOO &>4iiiiii",
"iiiiu3:OOOOOO+,ZG)()'P*OO..@p!()/)HeOoOXO +:4uuiiiiiiiu4@#.OOOOObR_`__`p@OoO*1VT___EH0&OOoOO%:3uiiii",
"iiu3:&%OOOOOo+:Z()))'P*OOO +p~)())HyXOXooOO++>3uiiiuu3:++OOOOOOOyI____`a@OOOX1VT___GC2%OOOOOo%&:4uii",
"i4>@%*OOOOOOO19S()(~_P*OOO @p())_(Yh-OXXXOOOO%:>uu44>@+OOOOOOOO=BE____`a$O.O*;VQ____Jq1OOOOOOO%%@>3u",
">:%X%OOOOOO+1flG(_/~'P*OOO.$p!!)_)THq6%OOOoXOOO+@>>@+%OOOOO.o%6hH(_`__/a&OoO*=VT____Gmq6%OOOOOXOX%:>",
"XXXOOOOOOo%<VT()((`('P*.OO.$s~)())_(TV5.oXOOOOXOX+XXOOOOO.OO%0CY()____/p@OOOX-VT___/!!Em2*OOOOOOXOXX",
"XOOOOooO&7BCT(_((~_~'P*OOOo$p!)((``!(THj7&XXoOOOXXOOOOOOo%*<cIT((__`___p=XOo;=VT_`(`_!_GZj7=OOOOoOOO",
"OOOXo&=7fmT(()_()!/TKN*OOOO=9YT(``(_(__Yme7;+.OoOOOOOOOO=7hlY__)/__`(TY9&OOOX*hI(())_/_/^SBq6=*OOOOO",
"OOOX*6qkY((__`_)((FCbr*OOOO%2xCT((__`___(Zkw=*OOOOOOO%*1qmS(((/__^!TYCx6OOoXOX7xHD__//()_!(Akq1&OOOO",
"OOX;enH((((_`_~((Kd7-OOOOOOX%=0jJ(_(_`_`!!(Kk0=oOOOOO=qVAT(`!^_!/_TZj7=.oXOXXX*=0aI_/(`))/!(EJn0%%OO",
"OO=yCFT_____`_(Zjw1&OOOOOOXOOX&6wdK(____/(((DCe=%OOO$9CT(())/^`(_Ka01%XOOOoOOOO%&,wnK(_(()_/_GYm5%Oo",
"OO6cT___(___TSHh1&OOoOOOOOXXoOOO*,hLY(_`_((()Yj6OOo%$kD!!)))(_(AVh,*OXOXoOOoOOoOoO&6hCY(((_///_Yf1OO",
"OO6VT```))((Ad2OOOOoOOOOO*O.ooOOOO#7NST()(_`_Yj6%oOO,k!/!(`((TKj6*OOOOOOoO+OoOOOOOO #7nKT()))))Yg&oO",
"O.6VT)__)GZB0*%oOOOOOOO+:=&O%OOOOOO&-8nK(!/))Tn6%OOO1k!~(/`(Zj0=*.OOOOOO+#:@&OOoOOOOO*-qVSG))((Tp$OO",
"O.1VT___(Zfr*OOOOOO %+:>33>:&%OOOOOO.#6dF(`)(Tn6%OO*,kG/_(_Qx1&%o.OOOoO$:3443:%%OOOO..O*7jU)__(Tf=OO",
"O.1VT___)l,XOOOXOO.#@>4uiiu4>@%%OoO oO*0Z())_Yn1OOOO,k!~(__WtOOOOOOO%+:>3uiiu3>@#OOoo.OO%wH(``(Fg@O ",
"OO6VT____l,%OOXXO++:4uiiiiiiu4:+...OOOO0HT/`_Tn6*OOO$k!!/__RtOOOOOO &>uuiiiiiiu3>.OOOOOO%tH____Tp=OO",
"OO6VT___(l$OOOOX+@3uiiiiiiiiii43@+.oOO*rAT`)_Yn6*OOO,kG~___WtOOOOOO:3uiiiiiiiiiiu3@+OOOOOyH___)Fp=OO",
"O 6V(__`(m=XOOOo@3uiiiiiiiiiiiiu3@*OOO*0AG/)_Tn6.OO%,k!~__'WtOOOO#&3uiiiiiiiiiiiiu3:OOOO*wH__`(Tp=OO",
"O 6VT___(l@XOOOO>iiiiiiiiiiiiiiiu,#OoO*7H(/)_Fn6*O..,kG~```WtOOOo+:uiiiiiiiiiiiiiiu>OOOO*0H___(Fp&O ",
"OO6VT___`m1XOOOO>uiiiiiiiiiiiiiii:#OOO*0H_/((Yn6%OOO6k!/~__RtOOOO+:uiiiiiiiiiiiiiiu>XOOO*wP____Yp=O.",
"O 6VT___(l$OOOOO>uiiiiiiiiiiiiiiu:+OOO*0AE/()Tn6%OOO,kG~(~'WrOOOO%:uiiiiiiiiiiiiiiu>OOOO*tP_`__Tp=OO",
"O.6VT___(l$%OOOO>uiiiiiiiiiiiiii4:+OOO*7C^^((Tn6*oOO,kT/)__RrOOOo+:4iiiiiiiiiiiiiiu>OOOO*tJ_`_`Fg=O ",
"O.,VT_``!m$%XOOO>uiiiiiiiiiiiiiiu:+OOo*0AT/()Yn1%OOO,k!~)('R0O.OO+:uiiiiiiiiiiiiiii3OOOO*wH__`_Fp=oO"
};
