/* XPM */
static char *_eb71bbfe2934b19bece613b33a5c891yzZegfKoQBXWgIvy[] = {
/* columns rows colors chars-per-pixel */
"16 16 113 2 ",
"   c #311A13",
".  c #351A13",
"X  c #381912",
"o  c #3E1812",
"O  c #3E1B12",
"+  c #381E16",
"@  c #3F1C14",
"#  c #3F2117",
"$  c #421911",
"%  c #451B13",
"&  c #411C12",
"*  c #441E13",
"=  c #401C14",
"-  c #431E15",
";  c #461F17",
":  c #4A1C13",
">  c #4A1E13",
",  c #4D1E13",
"<  c #481C14",
"1  c #491F16",
"2  c #4E1F17",
"3  c #501F13",
"4  c #501C15",
"5  c #591E15",
"6  c #591F17",
"7  c #5D1F16",
"8  c #6E1A17",
"9  c #6E1D19",
"0  c #761917",
"q  c #741E1C",
"w  c #7A1E1C",
"e  c #442015",
"r  c #492013",
"t  c #4B2015",
"y  c #4F2316",
"u  c #452119",
"i  c #4A2218",
"p  c #4C2219",
"a  c #4D241B",
"s  c #4B241D",
"d  c #522117",
"f  c #512317",
"g  c #5C2217",
"h  c #582318",
"j  c #5D2318",
"k  c #5C2618",
"l  c #642417",
"z  c #652319",
"x  c #622418",
"c  c #622619",
"v  c #6A2619",
"b  c #6F271A",
"n  c #652B1B",
"m  c #672A1C",
"M  c #68281A",
"N  c #6A291B",
"B  c #6F2A1A",
"V  c #75221D",
"C  c #79211E",
"Z  c #75281B",
"A  c #732B1E",
"S  c #7E2F1E",
"D  c #542920",
"F  c #6A2D20",
"G  c #7D2826",
"H  c #793120",
"J  c #7F3020",
"K  c #861E1E",
"L  c #861F1E",
"P  c #8B1B1B",
"I  c #891F1D",
"U  c #8D321F",
"Y  c #803121",
"T  c #973322",
"R  c #943520",
"E  c #9A3422",
"W  c #9B3522",
"Q  c #993623",
"!  c #9D3624",
"~  c #983923",
"^  c #A33421",
"/  c #A33622",
"(  c #A23725",
")  c #AA3523",
"_  c #A83722",
"`  c #AC3622",
"'  c #A03924",
"]  c #A53925",
"[  c #A03E26",
"{  c #AF3B23",
"}  c #AA3B25",
"|  c #AC3A24",
" . c #B23D25",
".. c #B73E25",
"X. c #B53C27",
"o. c #BA3C24",
"O. c #BA3E27",
"+. c #B43F2A",
"@. c #BC3D28",
"#. c #AC4028",
"$. c #B24126",
"%. c #B94127",
"&. c #BB4026",
"*. c #BD4026",
"=. c #B64129",
"-. c #B8422A",
";. c #BC4229",
":. c #BB412C",
">. c #C04128",
",. c #C04228",
"<. c #C7462E",
"1. c #C6472F",
"2. c #CB4B31",
/* pixels */
"1.=.k t 2 > * $.1.a u ;.@.;.>...",
"-.F u 2 5 5 - n =.Q 1 l >.>.X...",
"m i u C L P y # [ *.k 1 v v l m ",
"a i p L L L b t B O.Q 3 , , 1 - ",
"a u s q L I f e #.@.N 2 z x l g ",
"2.Y t f 7 h e H *.' 1 f >.>.=.%.",
";.1.k ; 1 2 * =.*.c t ~ @.-.*.*.",
"] :.2 1 & & S *.! r k >.$.y y y ",
"i @.+.+.X...X.@.k e [ *.N t y > ",
"u j @.o. . .-.Q > k o.] t f k 5 ",
"a u g Z l B b 3 > ] ;.h - V w L ",
"G ; ; ; % & $ % B o.U * y L w q ",
"G ; - @ O O % : 2  .} % ; 9 0 8 ",
"u . A X.{ { +.l O S { U X * 4 * ",
"u 2 ) ) Q ) ^ / = o _ ) , @ O O ",
"u ( Q +     U / A . l ] T . O # "
};
