/* XPM */
static char *_8a487b803744699c988923146115727LsLQBF4yUIL9CxQq[] = {
/* columns rows colors chars-per-pixel */
"100 100 89 1 ",
"  c #2A210D",
". c #31260F",
"X c #342710",
"o c #372A11",
"O c #3D2D14",
"+ c #3E3016",
"@ c #412F16",
"# c #443217",
"$ c #433118",
"% c #4F371B",
"& c #4A3919",
"* c #543C1C",
"= c #593F1E",
"- c #5C3F20",
"; c #5C411F",
": c #5E4120",
"> c #614320",
", c #624322",
"< c #614421",
"1 c #624421",
"2 c #634421",
"3 c #634422",
"4 c #634423",
"5 c #644421",
"6 c #654522",
"7 c #644423",
"8 c #664522",
"9 c #664623",
"0 c #674524",
"q c #664724",
"w c #684623",
"e c #694623",
"r c #6A4724",
"t c #6B4725",
"y c #6A4626",
"u c #694925",
"i c #6A4824",
"p c #6B4824",
"a c #6B4926",
"s c #6C4824",
"d c #6D4824",
"f c #6C4925",
"g c #6E4925",
"h c #6F4925",
"j c #6C4827",
"k c #6F4927",
"l c #6D4A26",
"z c #6F4A26",
"x c #6F4B27",
"c c #6E4928",
"v c #6F4A28",
"b c #704A26",
"n c #714A26",
"m c #714A27",
"M c #734B27",
"N c #734C27",
"B c #714B29",
"V c #734C28",
"C c #734D29",
"Z c #744C28",
"A c #754C28",
"S c #764E29",
"D c #744D2A",
"F c #754E2A",
"G c #774F2A",
"H c #794F2A",
"J c #784F2B",
"K c #79502B",
"L c #7B512B",
"P c #7D512B",
"I c #7C512C",
"U c #7D532D",
"Y c #7E522D",
"T c #7F532D",
"R c #80532D",
"E c #81542E",
"W c #83552E",
"Q c #82552F",
"! c #85562F",
"~ c #865630",
"^ c #865730",
"/ c #875730",
"( c #885730",
") c #895831",
"_ c #8A5832",
"` c #8A5932",
"' c #8B5933",
"] c #8C5A33",
"[ c #8F5B34",
/* pixels */
"$+@+$++OO+++++++O$+++$++$++$$++OO+++++$$$O$+++++$++$$++O+++++++++$+++$+++++++++++$++$+$$$O+O++++++++",
"**--**:-%:%----%-*:%%-%--%%-**--%-%:-%%-**:%%-%--%%-**--%-%----%**-%%-%----%*::&%-%:-%-%**---%%----%",
"vvyybbbbjvvvvvjvgbbbvjvvvjvvvgNgvvvvvjvvBggvvvBBvvvvBggBgvvvjvjvgbBgvvvBjvgvxggxvvvvvvvjbgvBvvvvvvjv",
"~~~~~((!~~~~~~~~((!(~~~~^~~~^^^^~~~~^~~~~(~~~~~~~~~~~~~~~~~~~~~~(~~~~~~~~~~~^^^^~~^^^^~~~~~(~~~~~~~~",
"KKKKKKKKKUDvBDjyBDKUKKKKKKKKKKGKKGGBKKKvAHvyBDHHKKBBxGBijBKKKKKKHHKDDJgyvBBKKKGGKKGKKJJKHHZbAA5BvJKK",
"**********&+$*XXO&******%:******;&:;:%%+#*X.O&**%::$+&+ X+**-%*****$#*o.O$%:%:&;***::&:%**&O%@ X+-**",
"&&&>wypwiy,%>voo&bb;*&&&&&:ii:&:;&::%&&&:D$X&wDb:%q:&v: +:Ki:%&&&**%=U$.$,D%:9:&&3:&:0&:tt=&B- @-Jj>",
"&&&9bbAADB0*B~+O*KW:*&&$&&:BB0&3:&:4%&&*B]#X*H)H:&i0:W0 $4_D:*&&&-9=y[%X*J~:;i;+&qi&:i&:ZZy*UB $:~Kv",
"&&&5bZZZA9:*DEOO=P!g*&&&&*3AA3&;:&;3&&&*g)&o*D(Z;&y0=Uw &4[KB:*&*yB;g)%X;GG;:u;;&3q&3u;;NNq;HB #9]Py",
"&&&;yZZZB5**ZEOO*U!b;&&&&*3AA<&39&;9&&&*d)#o*J(D;*d>=~0 $0)Ubb:*9gg:g]%X&xU;;:&+&30&3i&;NN:;Hd #5(Pd",
"&&&*>bZZA>**ZEOO;U(A>&&&&*9gb5&;<&;3&&&*b)#O*H~b;&k0=E9 $q)WZDv3bAb:i[&X&N^;;u;+&9q&3q;;Dx<;UB #9(Ud",
"*&&*;bbZA>**bEOO*P!A>*&&&*9Ad<&><&;3&&&*b)#o*J~b;*d5=Ey #q[TZDbbNAD:0[%o;BU;;x;&&9w&;q&;AN<;Hd #0)Jv",
";*&&*9gBw*&*DWOO*E~A9*&&*>wAd;&><&;5*&&*g)&O*A~g;&g0=Ew #9]PZZZZAAN:y[&o&NW;;x;&&3w&3g&;Nb9*Pg #3)D9",
"d;&&*=yw>*&*AUOO=P~D9;&&=9bbp;&><&;5&&&&g)$X*H~v**y0=Rw #9]EZZZZAAb:w[&.&NL;;x;+&99&3w&;gb9;Ug #3)b*",
"d;&&*&=:*&&*bEOO*E~Ag;&*;bAb9=&;<&;5&&&*v_$o*H~0;&d9=Rw &9]EZZZZAAb;y]*.&CT;;i;&&39&3i&:gb9*Uk $9]b*",
"d>&*&&*=*&&*DEOO=U(Ab9*;yZAb3*&><&;<&&&*i_#O*DE>&*w9=Ry $9]EZZZZADb;g[&.;xL;;;;&&39&:w*:qN9=Ud $9(b*",
"A9*&&&&*&&&*bEOO*P(ZZb;9gNAb9;&>3&;3&&&&B]$o;KU:*&gq=Et @w]EbAbAAAb:g]%X%DW*;g:&&90&3g&*>k5=Hk #>)x*",
"A5*&&&&&&&**bEOO=E(ZZB9bbAAb;&&33&;9%&&*g]$o&DK;&*w9=Rw #y]EAAAAAAb:g]%X*x~*:i;+&9p&:w**-d9=Uy #9)i&",
"bw=&&&&&&=:*DWOO*E!ZAbdkZAbb;*&;;&;0;#&*i_$o*KU:&*gq=Ey #y]UbAAAAAb50[*X%N~*;i;&&:q&9i*&=b9*Pk #3)g&",
"dBb*&&&&*wy=NUOO=K(DAbdbAAAb;&&>3&;:&&&%v)$o*KH&*3g9=U9 #5]HBbAAAAb;i_%X*BW;;9;$&q0&3g;&&yw=Uk $9)i&",
"wgb:&&&&*9y=BEOO;P(ZAABbHAbd*&&>;&;9&&&%g]$o*KK:*3b9;U9 $0]KbbAADbb;i[%X&DE::g:&&q9&9d=**w9*Uk $4^i&",
"wBb5*&&&-dg*AWOO*U(ZAbAAbAbw*&&>3&;9&&&*i]$o*JE%;3b3;Ww &i]HybAADbw;i[%X*AU;:i&&&39&=b*&&by=Hb $4^i&",
"=dAb5&&;bbg=NUOO*E(DABAADAb9*&&;<&;<%&&*v)&o*JU&;ND9=W9 $3]B9bbHbbi*i_%X&A!*:g:&&99&>g;*&w9*Ed #4]i&",
"=9Dbd;=>bB>*BWOO*U(bbAAAbAb9*#&><&;9&&&*v)$o*JE:3bA9=Uy $9)g=bbbvy,:v[%X*N~*;i&&&9w&>b*&*w9=Py #3)v&",
"*;bHAN>;b9=*NUOO;P!gbAABABb0*&&><&;5*&&*k($X*JE>wAg0=W0 $9[i&9gNi3:;i)%X&BU;;x&&&9w&3b=&*w9*Pb #q)B*",
"&;kbDN33b9**BEOO*E!wbAAAAAy;&&&><&;5&&&&B(#O*K(>wBb>=Ki #9)9&:9y:;&&i[%X*gW*;q;&&<w&3g:*&w9=Pb $3)x*",
"&=dbDNgiA>**NWOO=EE9bbAAAAw;&&&><&;5&&&*k(#X*J(gbbv:;W9 #9]q&*;3;&&&i[&X*NW;;g*&&59&>B:**ww*Ud $9)B*",
"&=dbNABNA>**BEOO*UU=dBAAADw=&&&><&;5&&&*b]#O*H(DDbg>=Uq #9]i&&**&&&&0[%X&DU;;N&&&5w&>b>*&9>=HB $9)A*",
"#:;wbDAAB;&*BWOO=HU=bZAANA9*&&&>5&;5&&&&k(#X*K(AAb5=;Tq #q[q&$&&&#&&d[%X*AW;;g*&&9w&>by;&95*Hd #3)K9",
"&&;ybbDbg;&*BEOO=UU-wbAbDN9*&&&><&;5*&&*B(#O*K(HZb>=;T0 #q`q&&&&&&&;y[%X*bW*;N;&&qw&3bw;&5>=Ek #9)Pt",
"#;&9bHbg;*&*AEOO*HE*wdBAZZ9*&**5<&;5&&&*B($O*H]Abw:=;Tq #q)q&&&&@&&*w]&X&DT;;g*&&3q&9bg;*55*Hk #3]Uy",
"&&&;wZAg*&&*NWOO=UH=>kAABb;&&&*5<&;<&&&*b)#X*H(Ab9**;Wp #q[;&&&$&&&*g[&X*BW*;N&&&90&3bw;%===Uk #3)Pg",
"&&&*<NAw*;&&NROO;Lx;;pNNxu;&++;3<&;5&&&*B)$X*J]AB>&*=Ew #y]g&&&&&&&*y]%X*AE*;x;&&;q;;Nx;&===Uk $9[Tw",
"#&&*<NAw;&&&NP#O;KN+;<NNx:;&;;;q<&;5&&&*y_#O*J)Hw=&&=Ew #5]A:&&#&*=*g]%.*A~=:i;+;q;&;xN;&*=*Hk $3!Ux",
"&&&*;55;&&&;NR#X;GN;;;NNxu&++;;;<&;5&&&*v(#o*J)B>&&*=E9 #9]A:;&&*=9;w[&o&Z~*;q;#+9q&;NN;&***Ek $9!Lp",
"**&%*;*&&&&;NROO;Lu;;;xxx;;;+&;:>&;5&&&&v)&o*J~d-&&&=Ew #y]Hi:;%;9w;y]%.*B~*;0;&&;q;;gD;&&&=Hk $q)Kg",
"**&&&;&&&&;*NR+O;GG;;;;uu;;;&;;;<&;5*&&*v_$o;KU:*&&&;Ey #q(Ugy3;9bb:d[%X*BE*:b&&&9w&;iN3*&&=Hk #3)Pd",
"*&&&&&&&#&;&NR#X;SN+&;;;<;;++&;;;&>5&&&&v^#o&DU;&&&&;Ew &0]EDgwqbbb=y[%X*b!*;b;&&qw&;9x9*&&=Ed #9)K3",
";&&&&&&&&&;&NU$o;UN;&;;;;;##&;;;*&;5&&&*v)#o%KU;&#&&;Uw #9]WAANgZZB:0]%X%A(;;g*&&99&;3g9*&&*Ek #9)N;",
"<;#&#&&&&;<;NU#+;Ux&&+;;+;+;&;q:*&<5&&&*g~&.>KU&&&&&;Uy #9)WNDBbZDb:d]%X&DE*:b;#&9w&&<Nw=&*=Jd @3)N*",
"w;&&&&&#&;;;uU+o;CC;+&;+;+&&&;i:%&;5&&&&b]#o;DU;&&&&-U0 #9]EZZZZAbb;g)%X;CL;:u;;&99&*>bw=%&;Uk $9)g*",
"d;&&&#&&&;<;NU#o;Lx&&&&&+;&++;q;&&>5&&&;d)#o%KU&&&**=~0 #9]UZZZZAAb9i[&X;CU;;:&+&39&&=bw=&&*Hk $9)v*",
"d;*&&&&&+;;;NW++;LC&&&&&&++&;;3;&&;5&&&&b'&o&KH&&&**=Ui #9]WZZZZANA;q[&X+xU;;u;o&99&*;kb9**;Uk #3)g&",
"5<*&&&&&;#;;NU+o;CN;&&+&&+;&;;i;&&;5&&&;d'#o;KU;&&**=~3 #w]PbZZZAAb3p[*X;xU;3x;+&99&&-bbw;**Pd $9(g&",
";;;&&+&;;;;;NU+o;UG&&&+&&&&&:3i;&&;5&&&&b(#O*HU%&&=*=Wy $9]UbbAADAN;w[&o;uW;;x;;&5w&*=bbw;*=JB $q[i$",
";;;;+;#+<;;#NU++;UG&&&&&&&&&;9g;&&;5&&&*d'#o*HU*&&>-=Tw $0]KbbAAbAb;w[&.&uL;;x;+&9w&&*bbb:*&Ud $3^q&",
"+;<;&+;;<;;;NU+o;GG&&&&&&#&&;:b;&&;5&&&&d)#o*HP&&*y>=Ww #w]KgbBAAAb;t[&o;CT;;i;+&99&&*gbb0**Jk $3]i&",
";;;;;&&#<;+;GU+o;Gx&&&&+&&&&:ib;#&;>&&&;b)#O*HP*&*w>-Pg #9(A5bAADbg;w[&.&xL;;3;&&>w&&*wZb>=*HB $9^i&",
"&;;;++;;<;;;;U++*EH*&&&&&&#&>bb;:O;=&&&&B(#o*KU&*=b5=Ew @0]B;ggDDbw;w]%X*AE*;x;&&9w&&&wBby-=Hd #3]i&",
"+;;;;;;<;;$&pK+o=HU=&&&&@&&&5bb:+;;9%&&*d]%o*JU**5b9=Ed #0)B>gbbBgw;w[%X%AE;:x;+&9y&&*wgbk>*Ed #3`u&",
"++;;;;<<;;X;NR+o=UH=&&&&&&&;wZw=;&;9-#&%v(#o*KK:;yb9=E9 #0]i*9bDBg;;g[*X%AE*;i;+&9w&&&ygAd5=Ud $q]u#",
";;;;<;<<;+;&NU#+=UEw*&&&&&&;dbt*+;;;;&&*B_#X*K~:9gA5-E5 #0]y&>gAN9&;q]&X*BE;;q;&&3g&&*>dAb5*Ec $3^u&",
"+;;;;;;;;&&&NR#o=H(k>&&&&&*:bbd*;;;;&&&*d_$X*JW>yZZ9=Ey #q)q&:ybg;&%y[%X&AE;:g&&&9w**&-yAA9*Ek $9^g&",
"&++;;;;;&&&*NU++=U(b5*&&&&*;kb5*+;;;&&&*c($O*K~gbZZ5=Rw #9[0&&;g:;&&y]%X*AU;:g:&&3d*&&=0AA9=Hd #9`B&",
"&&&;;<;;&&&&AR+o=H(Dy;*&&&;wkw=&;;i3%&&*B]#O*K(AbZZ9=Ew #i]0&&*9;%&%p]%X&N~*:g*&&9w**&*9AA9*Pb #3)x&",
"+&&;;;;;&&&;NU#o=U!bb9=&&*yZBw*&&;q3&&&&b(#X*K(AZZZ9=Ew $q]9#&*;&&&*w]%X*A~*;i:#&9w=&&*>AZ9=Pk #3^B;",
"&&&&&;;&&&&*bR#o*E!Abb:&&*qAA9*&&;55;&&&k_$o*A(JAAB>-W9 #i`u&#&&&&&&g]%o&CT&;x;&&9w*%&*wbZw=Pg $9]N;",
"+&&&+;+&&&&*b!#o=P~Dbb5=*<wAA9&&;;9<&&&&k_#O*J(AbBd>=Ki #3)u&&&&&#&&i[&X*BW;;i&&&9y=&&*wZZw*HB $3)B3",
"&&&&;+&&&&&&b!#X*E(AAbA99gNAb9&&;3q9&&&;k(#o*H'HAbg:=Wp &q^4&&&&&&&*i[&X*NW:;i;#&5y:*&*3DH9*Uk $3)Uq",
"&&#&&#&#&#&;bR#o=U~DAAABwbAbb<&&&3u3&&&&B(#o*H(ADb9;=Uq #3[i&&#&&&&&q[*X&GW;;x*&&>d:&&&;bb9=HB @9)Tg",
"&&+&&#&&&***NW#X*P!bZDNDAAAAx;&&;pd5&&&;B(#o*K)AAb:=;Uq +u`u&#&&&&&*d[*X*AW;;g:&&9g9*&&*bb0=Ug #9)Pg",
";&&&&&&&&&**b!#O;P!gbNANbABNg;&&;Nd9&&&&b(#O*K)Hbg>*;Ti #u`x:&+&&&#&y[%X*xT*;g&&&0bw=&&;gb9*Ug #3)Pw",
";+&&#&&&&&**hWOO*UWtbDNANAAbw;&&&db5&&&*k(#@*K)Db9**;Uq &q`x;+;+&&&&w]&X&BW;;g*&&;bw*&&*yb5=Pd $9)K>",
";;&&&&&&&*;;bR#X;UWgbZAADbHN;&&&;xb9&&&&b]#.*K(Dg9*%:Tq #q`u;;&&&&&*y[&X*DU*;g*&&3ww;&&*=v0*Uv $3)b*",
";;&&+&&;*==*AWOO*KW>gbAABAbb>*&&;qq;&#&;q[&.*D)Aw:&*;E9 #w]K9=*&&&=*y]*.*CW*;x;$&;qx;&&*;g9=Pg $9^B:",
"<;;&;o&+*=>*gWOO*WK-gDAAAADg=&&&;x3;&&&&u!#o*K)A3:&*;Uy #9]Uy>*&**;*p]*.&NW;;x*&&;pN;&&&;i3;Pg #q)u&",
"u<;&&&&&*>9=NWOO=UU*wbZDNDAb&&#&;p;;&&&&g)#o*G~g3*&&=!w #9)Eb>*&*:-*d[%X*GT&;x;&&*<N<*&**93*Ey #q^u&",
"u<;;;+&;=5w*NWOO=UK&5bZbDbbg;&&&;q;;&&&;g)#+*K~g:&&%*E9 #9]Ubw>*->y=y]%X&NU;;x&&&;3N;*&&;q;;Pw #q^u#",
"p5;;&&;;33<=AROX*EH&:gDADBi;&&&*;N;&&&+;g)&o*K~y*&&&:Ed #0]WBbw;>9g:9[%X&xW;:i;;$;5h;;&**5>*Ud #9)i&",
"pp<;;&&;w3=*NROO=HD&*3bbAby;&&#;qN;&+&&&v)#o*K~:%&&**E0 #0]WAAw=0Bb:w]%X;NW;;;&+&&;N;&&&*===Ug #9^u&",
"<5<;;;;;93;*NROO=EH&&:gbAb;;&&&;ux;&;+&;v)$o*G~-&&&&-~y #w]PABk9vbb:g[%X&xU;;x;+$&;xq;&&*==*Ey #3]u#",
";5;;;;;;p;**NWOO*UH&&;3vbw;;&&&;iq;&&&$;g)$X*KK*&&&%*U9 #w]EZZbbbAA=y[%X;BU;;x;&&;;xq;&&&**=Ey #q^u&",
";;8p8;8ed;;&bR+O;Ux&&&;;g;*&&&&;gN:&&$&&v]&o;GA;&&&==Ew $9(WZZZZAAb-w]*.*A~*;g:&&*;A0-*&&**=Hk $3]i&",
";;pp5;eed;*;bW#O;TB&&&&;;;&&&&&3gN;&&&&&d(#o&KK&&&=%=Ey #9]UZZZZAAb:d]%.%A~*:g;+&*;by,*&&**=Ud #q)u&",
";;pd82eh8*&*hWOO;CB:&&&&**&&&&&9xw:$&&&;d_&.;GR;&&&>=Ww #9]EZZBAABb:y]%X%B~*;q;&&&=Ngy**&***Hb #q^u&",
"&;hbNbbb8;&*hR#O;Lg;&&+;&&&&&&*9g0;&&&&&k_&o&GU&&&%=:Ky &0]UZZZAAbb;d[%X%A~*;q;&&&=bb3-&&***Ed @q^u#",
"&;5hbSNNs;&;bW#X;LL;+&++&&&#&&;iv3*&&&&*d_$X*KU*&;:;;U9 #9]UbAAAAby;9]%X%DT;;i;#&&&bdd-*&&**Hc #3]i&",
"&&;pNbNN5;&*bWOO;Cx;;+;+&#&&&&;gi:*&&&&%g_$o*KU&&;y>;Wy #9]PdZAAZb9;t]%X&DT;;v&&#&;wBd>*&&&=~y @3)i&",
"&;;;NNNNu;&&bW+O;UU;+;&&&&&&&*9gg:&&$&&*v]&o*KU&&-g>;Uy #9]HkZZAAg:=w[&X*AW*;x;&&&&wbb>**&**Ec #3]g&",
"+;&;NNNN5;&&bW#o;TT:;;+&#&&&&*gbi;&&#&&*v)#o*KU*;>A9*Ww #0]HybZbAg:*w[*X*AW;;g&&&&*ykb5=*&&-Hd #3)g&",
"&&*ybAbg;*&*BWOO;GUu;*&&$&#&&;;p<;+&&&&;<);X*KR;>bb5-E0 &q]B3NAAby--d[%X&BE*;g*&&&&;gbg3*&&;UB $3)v*",
"&&*=wDbw;&&*bWOO;CWG;*&&&&&&;;xp<&&&&&+;pK&.*HWpwbZ9=U0 $q]b;bAbb0**y]%X*DW*;B*&&&&;ybg3*&&=Pg $0)B*",
"&&&*5by9;&&*BWOO;U^G<*&&&#&&;3Nh3&+&&&&&qU+o*K!NbAZ9=Ei $9]N;gNAb>**w]*X*bW;;b=&&&&*wbg9;*&*Pt $3)A*",
"&&&*=bg9=&&*BWOO;TWN<*&&&&&&;<Nh;&&&;&&;uT;o*K)AAAZ9=E3 $9]b;wbNB>**d]%.*DU;:b;&&&&*3gBq;**=Pt $9)A:",
"##&&;g0;**&*BWOO;G!Nq;*&&&&&;qNp;&+&;;&+x]#o*N)KAAA9=Wy #9]g;5xN0=&*d]%o&D!*;b:*&&&;;3bv>=*=Eg $9)A:",
"&&&*=w;;*&&*bEOO;L!xpp;&&&&&;xN<;&&;;;&;u]&o*K)AAAb9=Tw #9)b;3pd:*&*w[%.*b(*;b;&&#&&;;bNw=**Pg $9)A;",
"&&&&*==*&&&*bWOO;LWuNp;&&&&;9hN;;+++;;&;x)&o*K!KBAA9=Ww #q]0&;3q=*&&y[&X&DE=;b;*&&&&;;bgw=*=Py $9)Kw",
"&&&&**=*&&&*bWOO;CU<xp;;&&&;qxd;++;;;;&+u[&.*K)GDAb9=Wi #q]q&;;;*&&*d[%.*ZW*;b;&#&&&&;gbt=*=Ug #9)Pd",
"&&&&&&*&&&&*DWOO;UU;ybd5&&*;dAN;&&$;;;;;B]#X*U(HZZDw=Ew #<`q&;;;&&&&9[*X*Z(=;g;*$&&&*=0gb>=*Ed @9)Pg",
"&&&&&&&&&&%*bWOO*WD&5kbB<;;dbbq;&&;&;;+&d]#O*J(HZZb9=Ey &q`q&&&;&&&*w]%.&D!*;g:*&&$&&*;gZw;=Pb #9)Rb",
"*&&&&&&&&&**bW@O*UK&=ybbw<wANg<*&&&&9;;;B~#O*H(DZAb5=Ew +q`q&&&&&&&&d[%X&HU;*w9;&&&&&*=wbt5*Ud #<)RA",
"*&&&#&&&&*=*bWOO*ED&;;BAAAAAAd;&#&&;q;+;k(#X*J(HZbb>=Uw &q`q&&+&&&&&y]%X&N!*;0w:&$&&&&=9bb5=Hd $q)WA",
";;#&&&&&&;>*NW+o;PK&&;bbZDABg9&&&#&=g:&*k($O*A(AABk>=Ed &;[u;+;$&&&*y[*.&A!*;<w<;&&&&&*>by>=Ed $q)RN",
";;&&&&&&&;9*NWOO*PD&&*9bbbbgw;&&&&;9B:&*d($X*H]Hbdy>=E0 +:`u+&+&#&&*w]%.*AW;&;w9&&#&&&&;5y-*Uk @<)RA",
";&;&&&+&*>9*BUOO;TK&&&;>bbbg;*&&&&-db:&&B]#O*H(Hbw-==Uy ;;`q&&&&&&&&d[%.*AR;;;gw;&&&&$&*====Ed #5[RS",
"3;&&&&&&*39;NWOO*TK&&&&;yb9;;&&&&&;bA:&*b]#X*J(Hbw>*=~5 +i[3+&&&&#&%d[%X&DU;&&qq&&&&&&&%*=*=Ed #5)UN",
"w3;&&$&&*;9*DWOO;UH&&&#;;::;&&&&;;;ix::&q^$X*J)Di3;*=W0 #0]i&&&&&&&&0[&X*vE:&&gi;&&&&&&+;;&;Uj +3)WB",
"i9;&&&&&*99=bWOO*UH&&&&&&;;#&+&+&3iiCq;;u^&O*K~g3:&*;Uw #0)0&&&$&&$=i[%o*D~>*&0y:%#&&&&&+&+;Ui &3^WA",
"3;;*****;;:*BEOO*UK*&&&#&;&&+;+;;;qq::;;x)&X*K~y:%&&=Ey &0]g&&$&&&;;i[&X%Z(9*%:3:&&&+&+&&&;;Ui +<`Lq",
";;;;-;;;;;=*AEOO=PE;&&&&++&&&&&;;;::;;;;x)$o*GW3*&&&=Uw $i)B*&&&&&;&g]&.&D(y*&*::&&&;+;+&++;Ui +q`G;"
};
